<svg width="20" height="18" viewBox="0 0 20 18" fill="none" xmlns="http://www.w3.org/2000/svg">
<path d="M0.468801 0.000524282C0.354984 -0.00303852 0.243975 0.036235 0.157734 0.110597C0.0714927 0.18496 0.0163011 0.288993 0.00307693 0.402098C-0.0101472 0.515203 0.0195594 0.62916 0.0863202 0.721412C0.153081 0.813664 0.252033 0.87748 0.363602 0.900271L2.06322 1.27359L2.49999 3.35234C2.5003 3.35377 2.50062 3.35521 2.50094 3.35664L4.66707 13.1662C4.68942 13.2672 4.74559 13.3577 4.8263 13.4225C4.90701 13.4873 5.00743 13.5226 5.11095 13.5226H17.3789C17.4391 13.5235 17.499 13.5124 17.5549 13.49C17.6108 13.4675 17.6617 13.4342 17.7047 13.3919C17.7476 13.3496 17.7817 13.2992 17.8049 13.2436C17.8282 13.188 17.8402 13.1283 17.8402 13.0681C17.8402 13.0078 17.8282 12.9482 17.8049 12.8926C17.7817 12.837 17.7476 12.7866 17.7047 12.7443C17.6617 12.702 17.6108 12.6686 17.5549 12.6462C17.499 12.6237 17.4391 12.6126 17.3789 12.6135H5.47622L5.05809 10.7195H17.9981C18.1016 10.7195 18.202 10.6842 18.2827 10.6194C18.3634 10.5545 18.4196 10.4641 18.4419 10.363L19.9893 3.35622C20.004 3.28979 20.0036 3.22092 19.9881 3.15468C19.9726 3.08844 19.9424 3.02653 19.8998 2.97349C19.8572 2.92045 19.8033 2.87765 19.7419 2.84824C19.6806 2.81883 19.6134 2.80357 19.5454 2.80357C14.1346 2.80371 8.72388 2.80358 3.3132 2.801L2.8924 0.798612C2.87441 0.712891 2.83204 0.634175 2.77038 0.571965C2.70872 0.509756 2.6304 0.4667 2.54485 0.447946L0.55893 0.0120323C0.529371 0.0050228 0.499184 0.000987568 0.468822 0L0.468801 0.000524282ZM3.50982 3.71055C8.66639 3.71313 13.823 3.71315 18.9795 3.71315L17.6327 9.81086H4.85699L3.50982 3.71055ZM8.01919 14.4825C7.12976 14.4825 6.40037 15.2149 6.40036 16.1049C6.40035 16.9948 7.12975 17.7273 8.01919 17.7273C8.90862 17.7273 9.63802 16.9948 9.63801 16.1049C9.63801 15.2149 8.90861 14.4825 8.01919 14.4825ZM14.5389 14.4825C13.6495 14.4825 12.9201 15.2149 12.9201 16.1049C12.92 16.9948 13.6494 17.7273 14.5389 17.7273C15.4283 17.7273 16.1577 16.9948 16.1577 16.1049C16.1577 15.2149 15.4283 14.4825 14.5389 14.4825ZM8.01919 15.3916C8.41576 15.3916 8.72894 15.7047 8.72895 16.1049C8.72895 16.505 8.41576 16.8182 8.01919 16.8182C7.62261 16.8182 7.30942 16.505 7.30942 16.1049C7.30943 15.7047 7.62262 15.3916 8.01919 15.3916ZM14.5389 15.3916C14.9355 15.3916 15.2486 15.7047 15.2486 16.1049C15.2486 16.505 14.9355 16.8182 14.5389 16.8182C14.1423 16.8182 13.8291 16.505 13.8291 16.1049C13.8291 15.7047 14.1423 15.3916 14.5389 15.3916Z" fill="white"/>
</svg>
