<svg width="15" height="15" viewBox="0 0 15 15" fill="none" xmlns="http://www.w3.org/2000/svg">
<path d="M7.66191 2.96736C7.6183 2.92563 7.56026 2.90234 7.4999 2.90234C7.43954 2.90234 7.38151 2.92563 7.33789 2.96736L1.94434 8.11979C1.92143 8.14171 1.90321 8.16804 1.89077 8.19719C1.87833 8.22635 1.87194 8.25773 1.87197 8.28942L1.87109 13.1252C1.87109 13.3738 1.96987 13.6123 2.14568 13.7881C2.3215 13.9639 2.55995 14.0627 2.80859 14.0627H5.62402C5.74834 14.0627 5.86757 14.0133 5.95548 13.9254C6.04339 13.8375 6.09277 13.7182 6.09277 13.5939V9.60954C6.09277 9.54738 6.11747 9.48777 6.16142 9.44381C6.20537 9.39986 6.26499 9.37517 6.32715 9.37517H8.6709C8.73306 9.37517 8.79267 9.39986 8.83663 9.44381C8.88058 9.48777 8.90527 9.54738 8.90527 9.60954V13.5939C8.90527 13.7182 8.95466 13.8375 9.04257 13.9254C9.13047 14.0133 9.2497 14.0627 9.37402 14.0627H12.1883C12.4369 14.0627 12.6754 13.9639 12.8512 13.7881C13.027 13.6123 13.1258 13.3738 13.1258 13.1252V8.28942C13.1258 8.25773 13.1194 8.22635 13.107 8.19719C13.0945 8.16804 13.0763 8.14171 13.0534 8.11979L7.66191 2.96736Z" fill="white"/>
<path d="M14.3821 7.15283L12.1907 5.05635V1.875C12.1907 1.75068 12.1413 1.63145 12.0534 1.54354C11.9655 1.45564 11.8463 1.40625 11.722 1.40625H10.3157C10.1914 1.40625 10.0722 1.45564 9.98427 1.54354C9.89637 1.63145 9.84698 1.75068 9.84698 1.875V2.8125L8.15011 1.19004C7.99132 1.02949 7.75518 0.9375 7.50001 0.9375C7.24571 0.9375 7.01016 1.02949 6.85138 1.19033L0.619933 7.15225C0.437706 7.32803 0.414855 7.61719 0.580675 7.80762C0.622315 7.85568 0.6733 7.89477 0.730528 7.92251C0.787756 7.95025 0.850029 7.96605 0.913558 7.96896C0.977087 7.97186 1.04054 7.96181 1.10006 7.93941C1.15958 7.91701 1.21392 7.88274 1.25978 7.83867L7.33888 2.02969C7.38249 1.98796 7.44053 1.96468 7.50089 1.96468C7.56125 1.96468 7.61928 1.98796 7.6629 2.02969L13.7426 7.83867C13.8321 7.92455 13.9521 7.97142 14.0762 7.96901C14.2002 7.96659 14.3183 7.91509 14.4044 7.82578C14.5843 7.63945 14.5693 7.33183 14.3821 7.15283Z" fill="white"/>
</svg>
