<svg width="26" height="26" viewBox="0 0 26 26" fill="none" xmlns="http://www.w3.org/2000/svg">
<path d="M16.7434 8.90699V3.20848C16.7434 1.43952 15.3042 0 13.5349 0H3.20848C1.43919 0 0 1.43919 0 3.20848V11.4573C0 11.8206 0.294881 12.1155 0.658217 12.1155H13.5349C15.3042 12.1155 16.7434 10.676 16.7434 8.90699ZM1.31643 3.20848C1.31643 2.16521 2.16521 1.31643 3.20848 1.31643H13.5349C14.5782 1.31643 15.427 2.16521 15.427 3.20848V8.90699C15.427 9.95027 14.5782 10.799 13.5349 10.799H1.31643V3.20848Z" fill="white"/>
<path d="M13.0003 3.59961H3.74415C3.38082 3.59961 3.08594 3.89449 3.08594 4.25783C3.08594 4.62116 3.38082 4.91604 3.74415 4.91604H13.0003C13.3637 4.91604 13.6586 4.62116 13.6586 4.25783C13.6586 3.89449 13.3637 3.59961 13.0003 3.59961Z" fill="white"/>
<path d="M9.91494 7.19922H3.74415C3.38082 7.19922 3.08594 7.4941 3.08594 7.85744C3.08594 8.22077 3.38082 8.51565 3.74415 8.51565H9.91494C10.2783 8.51565 10.5732 8.22077 10.5732 7.85744C10.5732 7.4941 10.2783 7.19922 9.91494 7.19922Z" fill="white"/>
<path d="M22.5564 13.8848H12.23C10.4607 13.8848 9.02148 15.324 9.02148 17.0932V22.7918C9.02148 24.5607 10.4607 26.0002 12.23 26.0002H25.1067C25.47 26.0002 25.7649 25.7054 25.7649 25.342V17.0929C25.7649 15.324 24.3257 13.8848 22.5564 13.8848ZM24.4484 24.6835H12.23C11.1867 24.6835 10.3379 23.8347 10.3379 22.7914V17.0929C10.3379 16.0496 11.1867 15.2009 12.23 15.2009H22.5564C23.5997 15.2009 24.4484 16.0496 24.4484 17.0929V24.6835Z" fill="white"/>
<path d="M22.0218 17.4844H12.7656C12.4023 17.4844 12.1074 17.7793 12.1074 18.1426C12.1074 18.5059 12.4023 18.8008 12.7656 18.8008H22.0218C22.3852 18.8008 22.68 18.5059 22.68 18.1426C22.68 17.7793 22.3855 17.4844 22.0218 17.4844Z" fill="white"/>
<path d="M22.0224 21.084H15.8516C15.4882 21.084 15.1934 21.3789 15.1934 21.7422C15.1934 22.1055 15.4882 22.4004 15.8516 22.4004H22.0224C22.3857 22.4004 22.6806 22.1055 22.6806 21.7422C22.6806 21.3789 22.386 21.084 22.0224 21.084Z" fill="white"/>
</svg>
